<svg xmlns="http://www.w3.org/2000/svg" width="320" height="56" viewBox="0 0 320 56">
  <g fill="none" fill-rule="evenodd">
    <rect width="56" height="56"/>
    <path fill="#ED0037" d="M44.8875,12.9675 C39.5760894,7.19307956 31.6050592,4.66131808 23.9350974,6.31259034 C16.2651356,7.96386261 10.0421308,13.5514693 7.5775,21 C7.4194327,21.4545968 7.45556852,21.9542271 7.6774061,22.3813472 C7.89924368,22.8084673 8.28719858,23.1253699 8.75,23.2575 C9.1931802,23.4064492 9.67753525,23.3718655 10.095057,23.1614608 C10.5125788,22.9510561 10.828546,22.5823278 10.9725,22.1375 C12.2965637,18.0688358 14.9777766,14.5783168 18.5675,12.25 C18.7643324,17.1517632 20.0877178,21.9422986 22.435,26.25 C20.6480892,27.2658981 18.7518285,28.0760652 16.7825,28.665 C15.8018064,25.8952258 12.9508434,24.2514925 10.0624439,24.7905267 C7.17404451,25.329561 5.10784087,27.8909379 5.19215827,30.8279943 C5.27647568,33.7650506 7.48621997,36.203673 10.4007862,36.576115 C13.3153524,36.9485569 16.0673207,35.1439739 16.8875,32.3225 C19.5045889,31.601419 22.0208966,30.5549172 24.3775,29.2075 C26.8132361,32.4421619 30.0035192,35.0316384 33.67,36.75 C30.9944796,40.7023669 27.232309,43.7959773 22.8375,45.6575 C19.2781913,44.5200655 16.1477905,42.3293951 13.86,39.375 C13.2656035,38.6018014 12.1569486,38.4568535 11.38375,39.05125 C10.6105514,39.6456465 10.4656035,40.7543014 11.06,41.5275 C15.0544436,46.7280164 21.1504196,49.8881806 27.7025,50.155 L28.63,50.155 C40.4983377,50.1283264 50.2445948,40.7676017 50.75,28.91 C51.0013032,23.0264778 48.8905789,17.2865678 44.8875,12.9675 Z M11.2,33.25 C9.85885305,33.25 8.77076291,32.1644346 8.7675628,30.8232914 C8.76437678,29.4821483 9.84728563,28.3914487 11.1884172,28.3849994 C12.5295488,28.3786071 13.6228515,29.4588878 13.6325,30.8 C13.6371632,31.4481659 13.3829428,32.0713871 12.9262541,32.5313612 C12.4695655,32.9913354 11.8481827,33.25 11.2,33.25 Z M22.0675,10.5 C25.4963127,9.21732254 29.2259107,8.96787146 32.795,9.7825 C32.2392166,15.4637498 29.5501741,20.7230166 25.27,24.5 C22.969725,20.2036957 21.8638082,15.3690867 22.0675,10.5 L22.0675,10.5 Z M27.3175,27.3 C32.2532725,23.1621748 35.4415393,17.3107675 36.2425,10.92 C38.5735485,11.9404316 40.6657316,13.4365512 42.385,15.3125 C45.738557,18.9617496 47.4907007,23.802204 47.25,28.7525 C47.132553,31.3874252 46.4649057,33.9685976 45.29,36.33 C43.0464092,36.1067387 40.8305358,35.6612192 38.675,35 C39.2105477,33.8663706 39.666647,32.6968853 40.04,31.5 C42.961223,31.093538 45.1473531,28.6139773 45.1846221,25.6648476 C45.2218911,22.7157178 43.0991189,20.1817044 40.1891003,19.7015513 C37.2790817,19.2213982 34.4547694,20.9391428 33.5426436,23.7439211 C32.6305177,26.5486994 33.9041995,29.5991291 36.54,30.9225 C36.2093155,31.8862381 35.8296549,32.8324691 35.4025,33.7575 C32.203046,32.310533 29.3996563,30.1134438 27.23,27.3525 L27.3175,27.3 Z M39.305,27.9475 C37.9615673,27.9475 36.8725,26.8584327 36.8725,25.515 C36.8725,24.1715673 37.9615673,23.0825 39.305,23.0825 C40.6484327,23.0825 41.7375,24.1715673 41.7375,25.515 C41.7523959,26.1846512 41.4905013,26.8308107 41.0135688,27.3011191 C40.5366364,27.7714275 39.8868774,28.0242598 39.2175,28 L39.305,27.9475 Z M28.5075,46.62 C31.9091932,44.4397892 34.7938643,41.5431732 36.96,38.1325 C38.9729103,38.8038328 41.0396334,39.3014857 43.1375,39.62 C39.5915494,44.0724217 34.1993163,46.6524376 28.5075,46.62 L28.5075,46.62 Z"/>
  </g>
</svg>
