<svg xmlns="http://www.w3.org/2000/svg" width="320" height="56" viewBox="0 0 320 56">
  <g fill="none" fill-rule="evenodd">
    <rect width="56" height="56"/>
    <path fill="#ED0037" d="M22.75,29.75 C24.6829966,29.75 26.25,31.3170034 26.25,33.25 L26.25,33.25 L26.25,45.5 C26.25,47.4329966 24.6829966,49 22.75,49 L22.75,49 L8.75,49 C6.81700338,49 5.25,47.4329966 5.25,45.5 L5.25,45.5 L5.25,33.25 C5.25,31.3170034 6.81700338,29.75 8.75,29.75 L8.75,29.75 Z M47.25,29.75 C49.1829966,29.75 50.75,31.3170034 50.75,33.25 L50.75,33.25 L50.75,45.5 C50.75,47.4329966 49.1829966,49 47.25,49 L47.25,49 L33.25,49 C31.3170034,49 29.75,47.4329966 29.75,45.5 L29.75,45.5 L29.75,33.25 C29.75,31.3170034 31.3170034,29.75 33.25,29.75 L33.25,29.75 Z M22.75,33.25 L8.75,33.25 L8.75,45.5 L22.75,45.5 L22.75,33.25 Z M47.25,33.25 L33.25,33.25 L33.25,45.5 L47.25,45.5 L47.25,33.25 Z M22.75,7 C24.6829966,7 26.25,8.56700338 26.25,10.5 L26.25,10.5 L26.25,22.75 C26.25,24.6829966 24.6829966,26.25 22.75,26.25 L22.75,26.25 L8.75,26.25 C6.81700338,26.25 5.25,24.6829966 5.25,22.75 L5.25,22.75 L5.25,10.5 C5.25,8.56700338 6.81700338,7 8.75,7 L8.75,7 Z M47.25,7 C49.1829966,7 50.75,8.56700338 50.75,10.5 L50.75,10.5 L50.75,22.75 C50.75,24.6829966 49.1829966,26.25 47.25,26.25 L47.25,26.25 L33.25,26.25 C31.3170034,26.25 29.75,24.6829966 29.75,22.75 L29.75,22.75 L29.75,10.5 C29.75,8.56700338 31.3170034,7 33.25,7 L33.25,7 Z M22.75,10.5 L8.75,10.5 L8.75,22.75 L22.75,22.75 L22.75,10.5 Z M47.25,10.5 L33.25,10.5 L33.25,22.75 L47.25,22.75 L47.25,10.5 Z"/>
  </g>
</svg>
