<?xml version="1.0" encoding="iso-8859-1"?>
<!-- Generator: Adobe Illustrator 18.0.0, SVG Export Plug-In . SVG Version: 6.00 Build 0)  -->
<!DOCTYPE svg PUBLIC "-//W3C//DTD SVG 1.1//EN" "http://www.w3.org/Graphics/SVG/1.1/DTD/svg11.dtd">
<svg version="1.1" id="Capa_1" xmlns="http://www.w3.org/2000/svg" xmlns:xlink="http://www.w3.org/1999/xlink" x="0px" y="0px"
	 viewBox="0 0 491.264 491.264" style="enable-background:new 0 0 491.264 491.264;" xml:space="preserve">
<g>
	<path d="M109.104,340.212c-25.031-15.717-45.502-38.006-58.883-64.533c15.682,9.496,34.43,17.428,55.725,23.26
		c0.973,3.123,2.088,6.066,3.158,9.076v-95.527c0-12.047,4.076-23.082,10.711-32.094c1.262-17.361,3.492-33.768,7.068-48.371
		c17.068-3.69,35.564-6.045,54.801-6.82v32.918h26.248v-32.918c19.283,0.775,37.713,3.131,54.801,6.82
		c2.006,8.211,3.627,16.998,4.934,26.098h26.277c-0.842-6.172-1.666-12.359-2.813-18.258c14.9,5.08,28.053,11.254,38.91,18.258
		h54.156C363.877,72.253,286.76,8.104,194.811,8.104C87.404,8.104,0,95.505,0,202.94c0,76.645,44.609,142.902,109.104,174.697
		V340.212z M341.58,134.716c-16.1-10.119-35.678-18.443-57.879-24.586c-7.119-22.635-16.664-42.115-28.182-57.35
		C293.539,68.239,324.297,97.681,341.58,134.716z M207.932,45.999c17.248,6.926,33.895,27.256,45.77,57.473
		c-14.527-2.434-29.914-3.906-45.77-4.457V45.999z M181.684,45.999v53.016c-15.871,0.551-31.242,2.023-45.789,4.457
		C147.787,73.255,164.42,52.925,181.684,45.999z M134.098,52.78c-11.52,15.234-21.064,34.715-28.152,57.35
		c-22.248,6.143-41.809,14.467-57.926,24.586C65.318,97.681,96.061,68.239,134.098,52.78z M34.316,181.737
		c11.115-16.975,34.141-31.674,64.17-41.875c-3.17,16.205-5.16,33.477-5.822,51.551H33.363
		C33.557,188.159,33.912,184.915,34.316,181.737z M34.965,228.335c-0.6-3.553-1.117-7.055-1.473-10.688h59.172
		c0.662,18.064,2.652,35.363,5.822,51.582C69.004,259.222,46.26,244.862,34.965,228.335z"/>
	<path d="M133.613,212.487v173.031c0,16.461,13.395,29.852,29.871,29.852h266.191c16.477,0,29.855-13.391,29.855-29.852V212.487
		c0-16.465-13.379-29.854-29.855-29.854H163.484C147.008,182.634,133.613,196.023,133.613,212.487z M166.297,215.317H426.85v167.367
		H166.297V215.317z"/>
	<path d="M466.748,434.13h-13.217H139.615H126.48c-13.547,0-24.512,10.971-24.512,24.514c0,13.543,10.965,24.516,24.512,24.516
		h340.268c13.529,0,24.516-10.973,24.516-24.516C491.264,445.101,480.277,434.13,466.748,434.13z"/>
</g>
<g>
</g>
<g>
</g>
<g>
</g>
<g>
</g>
<g>
</g>
<g>
</g>
<g>
</g>
<g>
</g>
<g>
</g>
<g>
</g>
<g>
</g>
<g>
</g>
<g>
</g>
<g>
</g>
<g>
</g>
</svg>
