<svg xmlns="http://www.w3.org/2000/svg" width="320" height="56" viewBox="0 0 320 56">
  <g fill="none" fill-rule="evenodd">
    <rect width="56" height="56"/>
    <path fill="#ED0037" d="M43.6275,24.5 C43.1939379,21.3243463 41.1125879,18.6150838 38.1559407,17.3777521 C35.1992935,16.1404204 31.8086714,16.5597092 29.2425,18.48 C27.1191413,14.4319819 22.5087284,12.3539691 18.0695005,13.4440877 C13.6302726,14.5342062 10.5068031,18.5113889 10.5,23.0825 C10.5,23.2925 10.5,23.485 10.5,23.695 C6.62476525,25.7866037 4.66327497,30.2414529 5.7371502,34.5121721 C6.81102543,38.7828913 10.6463478,41.7801281 15.05,41.79 L42,41.79 C46.4132838,41.6585408 50.0371938,38.2596981 50.4509695,33.8638881 C50.8647451,29.4680781 47.938733,25.4526941 43.6275,24.5 L43.6275,24.5 Z M42,38.29 L15.085,38.29 C12.1095854,38.2950184 9.56096128,36.1609772 9.04313863,33.2309641 C8.52531598,30.3009509 10.188102,27.4226252 12.985,26.4075 L13.125,26.4075 C13.2735076,26.3344119 13.4142265,26.2464627 13.545,26.145 C13.545,26.145 13.545,26.145 13.545,26.0575 C13.7320469,25.9095582 13.8868823,25.7249469 14,25.515 L14,25.515 C14.0871728,25.3213539 14.1404469,25.1141769 14.1575,24.9025 L14.1575,24.9025 C14.1662586,24.762637 14.1662586,24.622363 14.1575,24.4825 C14.0570927,24.0224752 14.0043144,23.5533352 14,23.0825 C13.977064,19.7136557 16.5478312,16.8932453 19.9043788,16.6047563 C23.2609264,16.3162672 26.2752542,18.6566489 26.8275,21.98 L26.8275,21.98 C26.8968014,22.3833045 27.1154891,22.7457013 27.44,22.995 L27.545,23.1 L27.545,23.1 C27.6610806,23.1663675 27.7843852,23.2192123 27.9125,23.2575 L28.14,23.2575 C28.3081482,23.283752 28.4793518,23.283752 28.6475,23.2575 C28.6996303,23.2663116 28.7528697,23.2663116 28.805,23.2575 L28.805,23.2575 C28.9575055,23.2174724 29.1044598,23.1586907 29.2425,23.0825 L29.4525,23.0825 L29.575,22.9775 C29.7104821,22.8622184 29.8336411,22.7331947 29.9425,22.5925 L29.9425,22.5925 C31.2804432,20.4631029 33.8770071,19.491181 36.2843204,20.2186883 C38.6916337,20.9461955 40.3153222,23.1935077 40.25,25.7075 L40.25,25.97 C40.1911982,26.7225055 40.6215024,27.4279222 41.3175,27.72 L41.4575,27.72 C41.6043439,27.7733338 41.7571345,27.8085932 41.9125,27.825 L42,27.825 C44.8994949,27.825 47.25,30.1755051 47.25,33.075 C47.25,35.9744949 44.8994949,38.325 42,38.325 L42,38.29 Z"/>
  </g>
</svg>
