<svg xmlns="http://www.w3.org/2000/svg" width="320" height="56" viewBox="0 0 320 56">
  <g fill="none" fill-rule="evenodd">
    <rect width="56" height="56"/>
    <path fill="#ED0037" d="M28.2625,5.25 C28.4155374,5.27978949 28.5630912,5.33290885 28.7,5.4075 L28.7,5.4075 L46.025,13.475 L46.2,13.5625 L46.3745394,13.6630659 C46.4874237,13.7356624 46.5930971,13.8191785 46.69,13.9125 L46.69,13.9125 L46.7915106,14.0362686 C46.8871545,14.1644166 46.9649367,14.3052757 47.0225,14.455 L47.0225,14.455 L47.0898034,14.6544076 L47.0898034,14.6544076 L47.145,14.8575 C47.4432128,19.647078 46.9885233,24.4537956 45.7975,29.1025 C43.225,39.27 37.2925,46.7075 28.6475,50.61 L28.6475,50.61 L28.4911924,50.668069 C28.3324754,50.7185681 28.1670837,50.7462375 28,50.75 L28,50.75 L27.8275115,50.7327851 C27.6564063,50.7065419 27.4901473,50.6533973 27.335,50.575 L27.335,50.575 L26.8902671,50.3699982 C18.4864298,46.4152229 12.7131466,39.0596983 10.185,29.0675 C9.03447555,24.4954486 8.59765065,19.7730172 8.89,15.0675 L8.89,15.0675 L8.89,14.7875 L8.92162834,14.6235476 C8.96036534,14.4612916 9.02027687,14.3045795 9.1,14.1575 L9.1,14.1575 L9.17363586,14.0414454 C9.25213843,13.9287813 9.34499581,13.8265829 9.45,13.7375 L9.45,13.7375 L9.59,13.6325 C9.66298897,13.562885 9.74547587,13.5039658 9.835,13.4575 L9.835,13.4575 L27.3175,5.3375 L27.685,5.25 Z M28,8.925 L12.25,16.17 C12.11,20.615 12.3375,39.4275 28,47.0575 C43.6275,39.445 43.89,20.7025 43.75,16.205 L43.75,16.205 L28,8.925 Z M35.385,21.175 C36.0675655,20.4964837 37.1699345,20.4964837 37.8525,21.175 C38.1927253,21.5201926 38.3745535,21.9910264 38.3546521,22.4752939 C38.3347507,22.9595615 38.1149022,23.413888 37.7475,23.73 L37.7475,23.73 L28.07,33.1625 L27.9605045,33.2490905 C27.8849493,33.3033408 27.8044455,33.3505288 27.72,33.39 C27.6527527,33.4406694 27.5826361,33.4874138 27.51,33.53 C27.3038717,33.611469 27.0841434,33.6530393 26.8625,33.6525 C26.6349774,33.6552875 26.4090948,33.6136776 26.1975,33.53 L26.1975,33.53 L25.9875,33.39 C25.8608318,33.3307933 25.7430323,33.2542236 25.6375,33.1625 L25.6375,33.1625 L20.825,28.4725 C20.1291212,27.8007837 20.1095337,26.6921288 20.78125,25.99625 C21.4529663,25.3003712 22.5616212,25.2807837 23.2575,25.9525 L23.2575,25.9525 L26.8975,29.4525 Z"/>
  </g>
</svg>
