<svg xmlns="http://www.w3.org/2000/svg" width="320" height="56" viewBox="0 0 320 56">
  <g fill="none" fill-rule="evenodd">
    <rect width="56" height="56"/>
    <path fill="#ED0037" d="M47.53,15.75 C47.4499455,15.556984 47.3563801,15.3698532 47.25,15.19 C41.825,6.7375 33.005,3.185 24.255,5.8625 C19.5057333,7.36227952 15.6021777,10.7834445 13.4925,15.295 C12.5920756,17.3605171 12.0363726,19.5596822 11.8475,21.805 C11.7089064,23.0679109 11.4808331,24.3193898 11.165,25.55 C10.550259,27.3554515 9.70314378,29.0732129 8.645,30.66 C8.27166667,31.255 7.92166667,31.8383333 7.595,32.41 C6.99797479,33.4189839 6.9457798,34.6598734 7.45596519,35.7154293 C7.96615057,36.7709853 8.97094712,37.5009956 10.1325,37.66 C10.5188158,37.7039705 10.8998365,37.7860365 11.27,37.905 C11.4587607,38.8569208 11.569959,39.8225902 11.6025,40.7925 C11.6376825,42.3542325 11.8909659,43.903384 12.355,45.395 C13.86,49.5075 17.0625,48.895 19.1975,48.51 L20.055,48.3525 L20.3,48.3525 L32.97,44.31 C33.4392603,44.1717241 33.8292183,43.8433386 34.0453353,43.4044549 C34.2614523,42.9655711 34.2839956,42.4562617 34.1075,42 C33.9669514,41.5560568 33.6552641,41.1864361 33.2414257,40.972948 C32.8275872,40.7594599 32.3457278,40.7197113 31.9025,40.8625 L19.355,44.8525 L18.55,44.9925 C16.275,45.4125 16.1,45.3775 15.645,44.1175 C15.2959594,42.9412431 15.113353,41.7219034 15.1025,40.495 C15.0635097,39.1426599 14.8757111,37.7987262 14.5425,36.4875 C14,34.65 11.6375,34.3175 10.6225,34.16 C10.955,33.6 11.2875,33.04 11.6375,32.41 C12.8569942,30.5807546 13.8279932,28.5975626 14.525,26.5125 C14.8855696,25.120843 15.1487072,23.7057477 15.3125,22.2775 C15.4668742,20.4046813 15.9157243,18.5679393 16.6425,16.835 C18.3249846,13.1972247 21.4538238,10.4301378 25.27,9.205 C27.130968,8.62505806 29.0817825,8.38787696 31.0275,8.505 C31.0207031,8.59820959 31.0207031,8.69179041 31.0275,8.785 L31.0275,14.3675 C31.0283804,15.1926119 30.6224815,15.9651291 29.9425,16.4325 L27.58,17.5 C26.6924055,16.7274634 25.3973724,16.64513 24.4190896,17.2990409 C23.4408068,17.9529518 23.0217075,19.1810582 23.396154,20.2965969 C23.7706006,21.4121356 24.8457995,22.1386593 26.0204943,22.0698924 C27.1951891,22.0011256 28.1782727,21.1541096 28.42,20.0025 L31.0975,18.76 L31.255,18.6725 C32.7140141,17.7260529 33.596155,16.1066002 33.6,14.3675 L33.6,8.9075 C35.2632529,9.31619817 36.8478065,9.99613721 38.29,10.92 L38.29,19.25 C37.1850722,19.8879611 36.698877,21.2280225 37.137672,22.4260704 C37.576467,23.6241182 38.813162,24.3331568 40.0687546,24.1065577 C41.3243471,23.8799587 42.2351743,22.783353 42.2275,21.5075 C42.2183471,20.5762991 41.7197206,19.7186616 40.915,19.25 L40.915,12.985 C42.2487301,14.223906 43.4242997,15.6228338 44.415,17.15 C47.5475,23.8875 46.4975,27.2125 44.625,30.31 L36.75,28.245 C36.3739553,26.8634506 34.9601558,26.0381002 33.5722282,26.3898746 C32.1843006,26.741649 31.3342991,28.1407664 31.661695,29.534646 C31.989091,30.9285255 33.3730967,31.8029169 34.7725,31.5 C35.2407825,31.3822567 35.6657498,31.1333473 35.9975,30.7825 L42.9975,32.62 C41.9599844,34.0991592 41.140753,35.7199408 40.565,37.4325 C39.9470144,40.1363297 39.8401777,42.931891 40.25,45.675 C40.355,46.865 40.4425,47.985 40.4425,49.07 C40.4425,50.0364983 41.2260017,50.82 42.1925,50.82 C43.1589983,50.82 43.9425,50.0364983 43.9425,49.07 C43.9425,47.845 43.8375,46.6025 43.7325,45.395 C43.3974111,43.0649154 43.4863413,40.693444 43.995,38.395 C44.5666598,36.7852126 45.3746744,35.269448 46.3925,33.8975 C49,29.9425 52.0275,25.4275 47.53,15.75 Z"/>
  </g>
</svg>
