<svg xmlns="http://www.w3.org/2000/svg" width="320" height="56" viewBox="0 0 320 56">
  <g fill="none" fill-rule="evenodd">
    <rect width="56" height="56"/>
    <path fill="#ED0037" d="M45.5,36.75 C48.3994949,36.75 50.75,39.1005051 50.75,42 L50.75,42 L50.75,49 C50.75,49.9664983 49.9664983,50.75 49,50.75 C48.0335017,50.75 47.25,49.9664983 47.25,49 L47.25,49 L47.25,42 C47.25,41.0335017 46.4664983,40.25 45.5,40.25 L45.5,40.25 L10.5,40.25 C9.53350169,40.25 8.75,41.0335017 8.75,42 L8.75,42 L8.75,49 C8.75,49.9664983 7.96649831,50.75 7,50.75 C6.03350169,50.75 5.25,49.9664983 5.25,49 L5.25,49 L5.25,42 C5.25,39.1005051 7.60050506,36.75 10.5,36.75 L10.5,36.75 Z M28,5.32381449 C32.4623997,5.32381449 36.3484536,8.36980272 37.4143595,12.7030296 C38.4802654,17.0362565 36.4506869,21.5373976 32.4975,23.6075 C37.7928769,24.6074364 42.4266503,27.7812538 45.2725,32.3575 C45.59482,32.9010602 45.5990518,33.5761717 45.2835712,34.1237298 C44.9680907,34.6712879 44.3819091,35.0062274 43.75,35.0000854 C43.1112562,34.9918813 42.5276822,34.6363707 42.2275,34.0725 C39.1401938,29.2304754 33.7405397,26.3612865 28,26.5125 C22.2631529,26.3569818 16.8667308,29.2279847 13.79,34.0725 C13.4868329,34.6418576 12.895039,34.9982788 12.25,35.0000854 C11.6212165,35.0000854 11.0408261,34.662455 10.7296418,34.1160732 C10.4184575,33.5696915 10.4243204,32.8983635 10.745,32.3575 C13.5869019,27.7852596 18.2135646,24.6119656 23.5025,23.6075 C19.5493131,21.5373976 17.5197346,17.0362565 18.5856405,12.7030296 C19.6515464,8.36980272 23.5376003,5.32381449 28,5.32381449 Z M28,8.75 C24.5825857,8.75961304 21.814613,11.5275857 21.805,14.945 C21.805,18.366404 24.578596,21.14 28,21.14 C31.421404,21.14 34.195,18.366404 34.195,14.945 C34.195,11.523596 31.421404,8.75 28,8.75 Z"/>
  </g>
</svg>
