<?xml version="1.0" encoding="iso-8859-1"?>
<!-- Generator: Adobe Illustrator 18.0.0, SVG Export Plug-In . SVG Version: 6.00 Build 0)  -->
<!DOCTYPE svg PUBLIC "-//W3C//DTD SVG 1.1//EN" "http://www.w3.org/Graphics/SVG/1.1/DTD/svg11.dtd">
<svg version="1.1" id="Capa_1" xmlns="http://www.w3.org/2000/svg" xmlns:xlink="http://www.w3.org/1999/xlink" x="0px" y="0px"
	 viewBox="0 0 266.939 266.939" style="enable-background:new 0 0 266.939 266.939;" xml:space="preserve">
<g>
	<path d="M257.939,45.439h-157c-4.971,0-9,4.029-9,9V119.5c0,4.971,4.029,9,9,9h157c4.971,0,9-4.029,9-9V54.439
		C266.939,49.469,262.91,45.439,257.939,45.439z M248.939,110.5h-139V63.439h139V110.5z"/>
	<path d="M74.06,45.439H9c-4.971,0-9,4.029-9,9V212.5c0,4.971,4.029,9,9,9h65.06c4.971,0,9-4.029,9-9V54.439
		C83.06,49.469,79.03,45.439,74.06,45.439z M65.06,203.5H18V63.439h47.06V203.5z"/>
	<path d="M166,138.439h-65.061c-4.971,0-9,4.029-9,9V212.5c0,4.971,4.029,9,9,9H166c4.971,0,9-4.029,9-9v-65.061
		C175,142.469,170.971,138.439,166,138.439z M157,203.5h-47.061v-47.061H157V203.5z"/>
	<path d="M257.939,138.439h-65.06c-4.971,0-9,4.029-9,9V212.5c0,4.971,4.029,9,9,9h65.06c4.971,0,9-4.029,9-9v-65.061
		C266.939,142.469,262.91,138.439,257.939,138.439z M248.939,203.5h-47.06v-47.061h47.06V203.5z"/>
</g>
<g>
</g>
<g>
</g>
<g>
</g>
<g>
</g>
<g>
</g>
<g>
</g>
<g>
</g>
<g>
</g>
<g>
</g>
<g>
</g>
<g>
</g>
<g>
</g>
<g>
</g>
<g>
</g>
<g>
</g>
</svg>
